Coordinates
version=1
nRows=14
nColumns=42
inDegrees=yes

Units are S.I. units (second, meters, Newtons, ...)
If the header above contains a line with 'inDegrees', this indicates whether rotational values are in degrees (yes) or radians (no).

endheader
time	pelvis_tilt	pelvis_list	pelvis_rotation	pelvis_tx	pelvis_ty	pelvis_tz	hip_flexion_r	hip_adduction_r	hip_rotation_r	knee_angle_r	knee_adduction_r	knee_angle_r_beta	ankle_angle_r	subtalar_angle_r	mtp_angle_r	hip_flexion_l	hip_adduction_l	hip_rotation_l	knee_angle_l	knee_adduction_l	knee_angle_l_beta	ankle_angle_l	subtalar_angle_l	mtp_angle_l	lumbar_extension	lumbar_bending	lumbar_rotation	arm_flex_r	arm_add_r	arm_rot_r	elbow_flex_r	pro_sup_r	wrist_flex_r	wrist_dev_r	arm_flex_l	arm_add_l	arm_rot_l	elbow_flex_l	pro_sup_l	wrist_flex_l	wrist_dev_l
      0.30000000	     15.66319129	      1.13090572	     -0.37210124	     -0.90737170	      0.99311395	     -0.14936784	      5.54268956	     -2.38670435	     -2.84434831	     40.07785812	      3.83052141	      0.69949058	      4.55789138	     -9.13330454	     -9.63868542	    -20.88218522	      3.79151909	     -5.67325679	      3.58914853	      1.61961956	      0.06264246	      8.24374688	     15.85250984	     -9.63868542	    -33.18662077	     -0.20213803	      3.70996457	     -6.67491697	    -22.61761237	     -6.43693468	     71.40162303	     90.00000001	      0.00000000	      0.00000000	      2.81194206	    -21.19395912	      5.65341221	     67.25735108	     90.00000001	      0.00000000	      0.00000000
      0.31000000	     15.69984585	      1.31899032	     -0.11857458	     -0.89468094	      0.99134989	     -0.14971543	      6.22426253	     -2.48852587	     -3.40953871	     36.96503170	      3.54699848	      0.64516151	      4.31917619	     -8.80466557	     -9.54999054	    -21.94069115	      3.88187255	     -5.66007969	      3.24215785	      1.71834029	      0.05658633	      8.88514980	     16.36472767	     -9.54999054	    -33.23416217	     -0.22177347	      3.58320675	     -7.10399485	    -22.55689064	     -7.02911592	     71.43347371	     90.00000001	      0.00000000	      0.00000000	      3.64750486	    -21.60741978	      6.14505051	     67.86122931	     90.00000001	      0.00000000	      0.00000000
      0.32000000	     15.71401299	      1.56087732	      0.12265479	     -0.88202457	      0.98930982	     -0.14997520	      6.87178567	     -2.62320317	     -4.32250613	     33.77663796	      3.01284219	      0.58951354	      4.07775039	     -8.01886000	     -9.46173603	    -22.90574339	      4.01547112	     -5.56804759	      3.03806788	      1.82005513	      0.05302429	      9.56943955	     16.77434351	     -9.46173603	    -33.26866581	     -0.30576075	      3.43407743	     -7.48392817	    -22.45972456	     -7.60391725	     71.42810344	     90.00000001	      0.00000000	      0.00000000	      4.51496031	    -22.01771566	      6.65170857	     68.40472290	     90.00000001	      0.00000000	      0.00000000
      0.33000000	     15.39719878	      2.03790501	      0.24120860	     -0.86962777	      0.98654139	     -0.15021658	      7.94431138	     -3.02517246	     -5.17456695	     30.74758944	      2.48238363	      0.53664667	      3.82381470	     -7.12764126	     -9.42294638	    -23.36949930	      4.52522580	     -5.37035969	      3.08255509	      1.70539048	      0.05380074	     10.33692621	     16.98221748	     -9.42294638	    -32.98746541	     -0.67864783	      3.22419928	     -7.74221994	    -22.37319160	     -8.01494821	     71.24957044	     90.00000001	      0.00000000	      0.00000000	      5.34518301	    -22.39443080	      7.01860213	     68.91170398	     90.00000001	      0.00000000	      0.00000000
      0.34000000	     15.64253913	      2.23971348	      0.56544239	     -0.85662622	      0.98443236	     -0.15038858	      8.16335278	     -3.08153855	     -7.38656082	     27.42877321	      1.37213622	      0.47872240	      3.90553087	     -4.30855470	     -9.27446200	    -24.56073745	      4.50510698	     -5.02312776	      2.98387312	      1.91995701	      0.05207841	     10.97599536	     17.13439074	     -9.27446200	    -33.24407402	     -0.68709453	      3.10367172	     -8.19203469	    -22.22016312	     -8.67628745	     71.32429300	     90.00000001	      0.00000000	      0.00000000	      6.33632371	    -22.82282985	      7.81178698	     69.32896037	     90.00000001	      0.00000000	      0.00000000
      0.35000000	     15.48463903	      2.66357900	      0.80742793	     -0.84399006	      0.98162663	     -0.15056072	      8.84435309	     -3.43193834	     -8.97336711	     24.25295459	      0.76206560	      0.42329391	      3.42956311	     -2.70392503	     -9.21924488	    -25.14181632	      4.81484550	     -4.59454053	      3.19862018	      1.95784514	      0.05582645	     11.85166684	     17.19849981	     -9.21924488	    -33.11447635	     -0.95881358	      2.88435791	     -8.45513541	    -22.05034679	     -9.20117746	     71.13852709	     90.00000001	      0.00000000	      0.00000000	      7.29778573	    -23.23439072	      8.48942324	     69.67269222	     90.00000001	      0.00000000	      0.00000000
      0.36000000	     15.42502276	      3.12371198	      1.07234566	     -0.83103934	      0.97876553	     -0.15074552	      9.49315389	     -3.80271565	    -11.57252322	     21.45037900	     -0.26765284	      0.37437974	      3.66350740	      1.17111973	     -9.06555832	    -25.87992662	      5.16416483	     -3.95976285	      3.34723610	      1.94304787	      0.05842029	     12.43107756	     16.91212712	     -9.06555832	    -33.08225802	     -1.23961691	      2.64810048	     -8.81748688	    -21.88866377	     -9.67630414	     71.10784318	     90.00000001	      0.00000000	      0.00000000	      8.21857764	    -23.60497576	      9.17080663	     70.03257300	     90.00000001	      0.00000000	      0.00000000
      0.37000000	     15.31811070	      3.48562905	      1.35883816	     -0.81809429	      0.97589212	     -0.15078101	      9.99032766	     -4.07246514	    -13.38676341	     18.50095161	     -0.70400864	      0.32290252	      3.03304103	      3.08591874	     -9.00208956	    -26.46709494	      5.35616018	     -3.49577805	      3.71800318	      1.98336091	      0.06489140	     13.21374032	     16.83171160	     -9.00208956	    -33.00093188	     -1.42759086	      2.45168437	     -9.10840882	    -21.69833377	    -10.15844118	     70.95863495	     90.00000001	      0.00000000	      0.00000000	      9.15995106	    -23.96233861	      9.91798127	     70.29269963	     90.00000001	      0.00000000	      0.00000000
      0.38000000	     15.16530582	      3.95436406	      1.66245997	     -0.80495817	      0.97286503	     -0.15090477	     10.62489488	     -4.53327920	    -15.67389187	     16.07996715	     -1.14564078	      0.28064837	      2.91106724	      6.38764388	     -8.87853403	    -27.02596840	      5.67318410	     -2.91936589	      4.07511910	      1.95124613	      0.07112425	     13.87317182	     16.69276164	     -8.87853403	    -32.86759479	     -1.70336079	      2.18384885	     -9.39115432	    -21.51228408	    -10.55823656	     70.79921800	     90.00000001	      0.00000000	      0.00000000	     10.04020116	    -24.28115832	     10.56757617	     70.56200015	     90.00000001	      0.00000000	      0.00000000
      0.39000000	     15.02556884	      4.26977495	      2.01848006	     -0.79170473	      0.96997860	     -0.15094721	     11.03171466	     -4.79935249	    -17.18173904	     13.63936406	     -1.19806324	      0.23805181	      2.21297972	      7.89270714	     -8.82111175	    -27.53333162	      5.75728944	     -2.55910388	      4.59668224	      1.99547833	      0.08022724	     14.61495563	     16.70909263	     -8.82111175	    -32.73794652	     -1.80462920	      1.93817148	     -9.62517817	    -21.31681725	    -10.95899369	     70.58898580	     90.00000001	      0.00000000	      0.00000000	     10.86880283	    -24.58161029	     11.24971221	     70.75315594	     90.00000001	      0.00000000	      0.00000000
      0.40000000	     14.80050920	      4.64013241	      2.37583311	     -0.77834281	      0.96702194	     -0.15097007	     11.49174613	     -5.15966762	    -18.26829787	     11.60048463	     -1.06282983	      0.20246665	      1.62650890	      9.01096942	     -8.78826594	    -27.93660813	      5.90757023	     -2.21846880	      5.16582073	      1.98063888	      0.09016058	     15.30300192	     16.81975535	     -8.78826594	    -32.51977590	     -1.96165285	      1.64686420	     -9.79811740	    -21.11504882	    -11.26324217	     70.29377473	     90.00000001	      0.00000000	      0.00000000	     11.61133252	    -24.82808232	     11.79745612	     70.94506278	     90.00000001	      0.00000000	      0.00000000
      0.41000000	     14.68589854	      4.80370961	      2.81614604	     -0.76449497	      0.96426566	     -0.15097391	     11.82033347	     -5.28902568	    -19.78693313	     10.05198582	     -1.08188325	      0.17544025	      1.44531471	     10.88512006	     -8.69420521	    -28.39581664	      5.75268413	     -2.37356504	      5.92034763	      1.99985229	      0.10332956	     16.02251337	     17.57529221	     -8.69420521	    -32.36489717	     -1.85811231	      1.48319262	    -10.13338631	    -20.93632923	    -11.66712668	     70.10399536	     90.00000001	      0.00000000	      0.00000000	     12.28486901	    -24.99928803	     12.42127708	     71.12917640	     90.00000001	      0.00000000	      0.00000000
      0.42000000	     14.35575892	      5.12515272	      3.26607079	     -0.75068098	      0.96138608	     -0.15108331	     12.29809993	     -5.62005947	    -20.27078935	      8.87150394	     -0.88003768	      0.15483695	      1.18923145	     11.20163641	     -8.67486789	    -28.68112732	      5.80438242	     -2.15085192	      6.56342165	      1.93922895	      0.11455332	     16.54099388	     17.73425190	     -8.67486789	    -32.00481515	     -1.91806542	      1.09675914	    -10.24306357	    -20.72155018	    -11.87169058	     69.74072319	     90.00000001	      0.00000000	      0.00000000	     12.77410464	    -25.17346911	     12.76532915	     71.28688272	     90.00000001	      0.00000000	      0.00000000
      0.43000000	     14.09475322	      5.27208500	      3.79340165	     -0.73658314	      0.95876336	     -0.15115185	     12.64198726	     -5.75033707	    -20.71176277	      8.12478448	     -0.76621325	      0.14180424	      1.00121126	     11.34530187	     -8.65311976	    -28.97174069	      5.57205331	     -2.15954937	      7.37932732	      1.96678820	      0.12879356	     17.08605886	     18.15096007	     -8.65311976	    -31.69208598	     -1.76435463	      0.80652439	    -10.41218410	    -20.49616960	    -12.18268015	     69.37166696	     90.00000001	      0.00000000	      0.00000000	     13.21007237	    -25.30202609	     13.17932970	     71.45005212	     90.00000001	      0.00000000	      0.00000000
